<svg width="36px" height="36px" viewBox="0 -7.594 36 36" version="1.1" xmlns="http://www.w3.org/2000/svg" xmlns:xlink="http://www.w3.org/1999/xlink" preserveAspectRatio="xMidYMid">
  <g fill="#2dd4bf">
    <path d="M28.427 4.154h-0.018L21.433 0.09 14.546 4.1 7.48 0 0 4.351v7.912l14.439 8.415 6.905 -3.992 7.084 4.099 7.534 -4.351v-7.912l-7.534 -4.369Zm-0.036 8.109 -5.916 -3.434 5.97 -3.488 5.916 3.47 -5.97 3.452Zm-14.007 -6.976 5.97 3.452 -5.898 3.434 -5.952 -3.47 5.88 -3.416Zm12.982 -0.539 -5.844 3.398 -5.952 -3.452 5.862 -3.416 5.934 3.47Zm-13.935 -0.108 -1.205 0.701 -4.873 2.751 -5.808 -3.452L7.498 1.187l5.934 3.452ZM1.043 5.502l5.844 3.524v6.221L1.043 11.688V5.502Zm7.012 4.136 5.844 3.47v6.203l-5.844 -3.47V9.638Zm13.899 0.072 5.952 3.506v6.15l-5.952 -3.542V9.71Z"/>
    <path d="m8.055 15.859 5.844 3.434V13.108L8.055 9.638v6.221ZM1.043 11.669 6.887 15.23V9.026L1.043 5.502v6.167Zm20.912 4.171 5.952 3.542V13.216L21.954 9.71v6.131Z" opacity="0.5"/>
  </g>
</svg>
